<?xml version="1.0" encoding="iso-8859-1"?>
<!-- Generator: Adobe Illustrator 19.0.0, SVG Export Plug-In . SVG Version: 6.00 Build 0)  -->
<svg version="1.1" id="Capa_1" xmlns="http://www.w3.org/2000/svg" xmlns:xlink="http://www.w3.org/1999/xlink" x="0px" y="0px"
	 viewBox="0 0 512 512" style="enable-background:new 0 0 512 512;" xml:space="preserve">
<g>
	<g>
		<path d="M490.667,256H480v-10.667c0-5.888-4.779-10.667-10.667-10.667h-10.667V352c0,52.928-43.072,96-96,96h-11.413
			c0.427,1.536,0.747,3.157,0.747,4.885v55.552c0,1.259-0.299,2.389-0.533,3.563h11.2C427.349,512,480,459.371,480,394.667V277.333
			h10.667c5.888,0,10.667-4.779,10.667-10.667S496.555,256,490.667,256z"/>
	</g>
</g>
<g>
	<g>
		<path d="M288,24.533V10.667C288,4.779,283.221,0,277.333,0s-10.667,4.779-10.667,10.667v11.2v287.467
			c0,5.888-4.779,10.667-10.667,10.667s-10.667-4.779-10.667-10.667V21.867c-94.997,5.568-170.667,84.416-170.667,180.8V352
			c0,41.173,33.493,74.667,74.667,74.667h213.333c41.173,0,74.667-33.493,74.667-74.667V202.667
			C437.333,113.621,372.736,39.723,288,24.533z M170.667,277.333c-29.419,0-53.333-23.936-53.333-53.333
			s23.915-53.333,53.333-53.333S224,194.603,224,224S200.085,277.333,170.667,277.333z M341.333,277.333
			C311.915,277.333,288,253.397,288,224s23.915-53.333,53.333-53.333c29.419,0,53.333,23.936,53.333,53.333
			S370.752,277.333,341.333,277.333z"/>
	</g>
</g>
<g>
	<g>
		<circle cx="170.667" cy="224" r="10.667"/>
	</g>
</g>
<g>
	<g>
		<circle cx="341.333" cy="224" r="10.667"/>
	</g>
</g>
<g>
	<g>
		<path d="M160,451.541c0-1.259,0.299-2.368,0.533-3.541h-11.2c-52.928,0-96-43.072-96-96V234.667H42.667
			c-5.888,0-10.667,4.779-10.667,10.667V256H21.333c-5.888,0-10.667,4.779-10.667,10.667s4.779,10.667,10.667,10.667H32v117.333
			C32,459.371,84.651,512,149.333,512h11.2c-0.235-1.173-0.533-2.304-0.533-3.563V451.541z"/>
	</g>
</g>
<g>
	<g>
		<path d="M330.667,452.885c0-1.728,0.32-3.349,0.747-4.885H180.8c0.235,1.173,0.533,2.283,0.533,3.563v56.896
			c0,1.237-0.299,2.368-0.533,3.541h150.4c-0.235-1.173-0.533-2.304-0.533-3.563V452.885z"/>
	</g>
</g>
<g>
</g>
<g>
</g>
<g>
</g>
<g>
</g>
<g>
</g>
<g>
</g>
<g>
</g>
<g>
</g>
<g>
</g>
<g>
</g>
<g>
</g>
<g>
</g>
<g>
</g>
<g>
</g>
<g>
</g>
</svg>
