<svg id="Layer_1" enable-background="new 0 0 506.13 506.13" height="512" viewBox="0 0 506.13 506.13" width="512" xmlns="http://www.w3.org/2000/svg"><path d="m373.331 325.373c12.081 2.487 24.294 3.672 36.461 3.562 1.131-9.432 1.287-16.167 1.233-24.488-14.886-1.443-29.322-5.384-42.733-11.549 6.799 8.798 9.223 21.053 5.039 32.475z"/><path d="m279.116 273.744c9.983-13.831 29.175-18.416 44.603-9.507 16.426 9.483 11.029 7.802.651-3.928-17.125-19.359-48.59-22.592-74.385-22.27 8.866 13.4 18.645 25.297 29.131 35.705z"/><path d="m479.382 168.835c-31.172 0-59.358-19.502-70.137-48.528-26.339-70.924-87.643-116.752-156.18-116.752s-129.841 45.828-156.18 116.751c-10.779 29.026-38.966 48.528-70.138 48.528-14.748.001-26.747 12-26.747 26.749v11.771c0 36.24 29.484 65.725 65.725 65.725 36.362 0 70.678-13.754 96.626-38.728 19.808-19.063 49.481-28.33 90.714-28.33 44.414 0 75.578 10.822 95.273 33.086 19.1 21.59 46.626 33.972 75.523 33.972h16.544c36.241 0 65.725-29.484 65.725-65.725v-11.771c0-14.749-11.999-26.748-26.748-26.748zm-190.23-45.427c10.109 10.109 2.811 27.313-11.313 27.313-4.095 0-8.189-1.563-11.313-4.687l-13.46-13.46-13.46 13.46c-3.124 3.124-7.219 4.687-11.313 4.687-14.126 0-21.421-17.206-11.313-27.313l13.46-13.46-13.46-13.46c-6.249-6.248-6.249-16.379 0-22.627 6.248-6.248 16.379-6.248 22.627 0l13.46 13.46 13.46-13.46c6.248-6.248 16.379-6.248 22.627 0 6.249 6.248 6.249 16.379 0 22.627l-13.46 13.46z"/><path d="m301.006 406.082h-95.882c-14.563 0-25.837 12.884-23.684 27.442l7.188 48.61c1.723 11.652 11.904 20.439 23.683 20.439h81.507c11.779 0 21.96-8.787 23.683-20.438l7.188-48.611c2.128-14.378-8.943-27.442-23.683-27.442zm-31.217 54.828h-33.449c-8.836 0-16-7.163-16-16s7.164-16 16-16h33.449c8.836 0 16 7.163 16 16s-7.163 16-16 16z"/><path d="m356.957 354.22c-10.219 13.487-29.142 17.578-44.149 8.914-.101 0 1.865 1.077-34.641-20-14.481-8.36-20.444-25.67-15.106-40.773-18.14-16.614-34.522-36.739-48.272-60.357-12.847 3.186-22.865 8.298-30.248 15.403-24.679 23.752-55.483 39.25-88.822 45.073-.529 53.407 19.187 99.331 54.284 137.204-5.544-37.494 22.696-65.601 55.121-65.601h10.41c-3.329-15.581 15.722-25.895 26.947-14.67l8.79 8.789c.989.988 2.599.988 3.588 0l8.79-8.789c11.22-11.22 30.278-.92 26.947 14.67h10.41c32.083 0 60.752 27.519 55.009 66.359 22.466-23.995 38.24-51.32 46.967-79.581-15.34-.424-30.784-2.638-46.025-6.641zm-154.463-21.14c-10.718 0-19.406-8.688-19.406-19.406 0-10.717 8.688-19.406 19.406-19.406s19.406 8.688 19.406 19.406-8.688 19.406-19.406 19.406z"/></svg>