<svg id="Capa_1" enable-background="new 0 0 512 512" height="512" viewBox="0 0 512 512" width="512" xmlns="http://www.w3.org/2000/svg"><g><path d="m256 0c-110.28 0-200 89.72-200 200 0 45.955 15.507 89.567 43.521 124.622 3.65-10.915 8.423-21.434 14.292-31.376-20.584-19.485-32.813-46.862-32.813-76.246 0-57.897 47.103-105 105-105 25.203 0 49.577 9.068 68.632 25.534.46.397.915.798 1.368 1.203.453-.405.91-.807 1.37-1.204 19.053-16.465 43.427-25.533 68.63-25.533 57.897 0 105 47.103 105 105 0 29.384-12.229 56.761-32.813 76.245 5.869 9.943 10.642 20.462 14.292 31.376 28.013-35.054 43.521-78.666 43.521-124.621 0-110.28-89.72-200-200-200z"/><path d="m485.779 190.24c.136 3.238.221 6.489.221 9.76 0 41.277-11.208 81.846-31.966 117.035 33.035-6.749 57.966-36.035 57.966-71.035 0-22.232-10.133-42.378-26.221-55.76z"/><path d="m26.221 190.24c-16.088 13.382-26.221 33.528-26.221 55.76 0 35 24.931 64.286 57.966 71.035-20.758-35.189-31.966-75.758-31.966-117.035 0-3.271.085-6.522.221-9.76z"/><path d="m401 217c0-41.355-33.645-75-75-75-18.002 0-35.41 6.476-49.017 18.233-9.399 8.121-16.58 18.395-20.983 29.812-4.403-11.418-11.584-21.691-20.983-29.812-13.607-11.757-31.015-18.233-49.017-18.233-41.355 0-75 33.645-75 75 0 30.845 18.716 57.4 45.388 68.906-22.544 24.603-35.388 56.92-35.388 91.094 0 74.439 60.561 135 135 135s135-60.561 135-135c0-34.174-12.844-66.49-35.388-91.094 26.672-11.506 45.388-38.061 45.388-68.906zm-145 75c24.813 0 45 20.187 45 45 0 8.284-6.716 15-15 15s-15-6.716-15-15c0-8.271-6.729-15-15-15s-15 6.729-15 15c0 8.284-6.716 15-15 15s-15-6.716-15-15c0-24.813 20.187-45 45-45zm-85-67.5v-15c0-8.284 6.716-15 15-15s15 6.716 15 15v15c0 8.284-6.716 15-15 15s-15-6.716-15-15zm150.606 183.106c-18.088 18.088-41.847 27.132-65.606 27.132s-47.519-9.044-65.606-27.132c-5.858-5.857-5.858-15.355 0-21.213 5.857-5.857 15.355-5.857 21.213 0 24.479 24.479 64.309 24.479 88.787 0 5.857-5.857 15.355-5.857 21.213 0 5.858 5.858 5.858 15.356-.001 21.213zm19.394-183.106c0 8.284-6.716 15-15 15s-15-6.716-15-15v-15c0-8.284 6.716-15 15-15s15 6.716 15 15z"/></g></svg>