<?xml version="1.0" encoding="iso-8859-1"?>
<!-- Generator: Adobe Illustrator 19.0.0, SVG Export Plug-In . SVG Version: 6.00 Build 0)  -->
<svg version="1.1" id="Capa_1" xmlns="http://www.w3.org/2000/svg" xmlns:xlink="http://www.w3.org/1999/xlink" x="0px" y="0px"
	 viewBox="0 0 512 512" style="enable-background:new 0 0 512 512;" xml:space="preserve">
<g>
	<g>
		<g>
			<path d="M18.286,228.846c-5.531,0.467-10.656,3.095-14.263,7.314c-3.215,3.721-4.591,8.687-3.749,13.531l11.429,62.537
				c1.332,4.838,5.872,8.081,10.88,7.771h13.989v-65.737C25.732,250.487,18.42,240.323,18.286,228.846z"/>
			<path d="M101.669,111.36c10.422-7.041,22.714-10.799,35.291-10.789h156.251c2.721,0.014,5.306-1.194,7.04-3.291l1.737-2.103
				c-5.878-4.559-9.32-11.578-9.326-19.017V64c-0.015-5.043-4.1-9.128-9.143-9.143h-13.166c-8.451,0.002-16.431-3.893-21.629-10.556
				c-5.198-6.663-7.034-15.351-4.977-23.547c0-0.183,0.274-0.914,0.274-1.006c0.794-3.795-0.892-7.679-4.206-9.691L222.994,0
				h-58.423c-70.629,0.067-127.883,57.28-128,127.909V228.48c-0.041,2.382,0.922,4.671,2.651,6.309
				c0.288,0.379,0.626,0.718,1.006,1.006l38.309-95.726C83.15,128.37,91.219,118.355,101.669,111.36z"/>
			<path d="M261.669,24.503c0,0.091-0.274,0.823-0.274,1.006c-0.611,2.633,0.03,5.401,1.737,7.497
				c1.712,2.259,4.388,3.58,7.223,3.566h13.166C298.65,36.616,310.904,48.87,310.949,64v12.16c0,3.383,2.743,6.126,6.126,6.126
				h12.16c15.13,0.044,27.384,12.299,27.429,27.429v9.143c0.015,5.043,4.1,9.128,9.143,9.143h54.217
				c1.195-0.023,2.389,0.069,3.566,0.274c7.844,0.992,14.86,5.369,19.2,11.977l5.303,7.954l0.183-21.851
				c-0.105-6.794-4.031-12.949-10.149-15.909c-4.476-2.272-7.745-6.375-8.96-11.246l-3.017-12.251
				c-1.792-6.994-7.516-12.289-14.629-13.531v8.869c-0.045,15.13-12.299,27.384-27.429,27.429c-5.049,0-9.143-4.093-9.143-9.143
				c0-5.049,4.093-9.143,9.143-9.143c5.043-0.015,9.128-4.1,9.143-9.143c0.393-6.14,0.325-12.302-0.201-18.432
				c-1.245-14.955-13.423-26.646-28.416-27.282h-5.76c-0.729-0.091-1.466-0.091-2.194,0c-0.044,15.13-12.299,27.384-27.429,27.429
				c-5.049,0-9.143-4.093-9.143-9.143c0-5.049,4.093-9.143,9.143-9.143c5.043-0.015,9.128-4.1,9.143-9.143v-6.309
				c-1.938-1.282-3.745-2.752-5.394-4.389l-3.291-3.383c-8.586-8.574-20.232-13.377-32.366-13.349h-36.297
				C262.662,14.104,262.884,19.423,261.669,24.503z"/>
			<path d="M256,411.429c-29.714,0-54.857,14.629-54.857,32c0,12.343,17.554,13.714,54.857,13.714
				c37.303,0,54.857-1.371,54.857-13.714C310.857,426.057,285.714,411.429,256,411.429z"/>
			<path d="M202.331,272.457c2.311-0.331,4.389-1.585,5.76-3.474c2.054-2.782,2.758-6.336,1.92-9.691
				c-8.947-15.988-25.415-26.323-43.703-27.429c-2.171,0.022-4.339,0.175-6.491,0.457c-36.48,4.937-50.103,23.863-50.103,34.56
				c0.357,1.695,1.336,3.195,2.743,4.206c12.668,8.81,27.935,13.094,43.337,12.16c5.531-0.451,10.928-1.939,15.909-4.389
				C181.239,274.263,191.753,272.066,202.331,272.457z"/>
			<path d="M361.143,192c-20.339,0-38.675,12.252-46.458,31.042c-7.783,18.79-3.481,40.419,10.901,54.801
				c14.382,14.382,36.01,18.684,54.801,10.901c18.79-7.783,31.042-26.119,31.042-46.458C411.38,214.534,388.895,192.049,361.143,192
				z"/>
			<path d="M507.977,236.16c-4.233-4.967-10.482-7.756-17.006-7.589h-15.543V320h13.989c4.979,0.309,9.504-2.885,10.88-7.68
				l11.429-62.629C512.568,244.847,511.192,239.881,507.977,236.16z"/>
			<path d="M456.777,173.623c-8.768-0.304-16.86-4.791-21.76-12.069l-7.406-11.246c-1.471-2.211-3.851-3.652-6.491-3.931
				c-0.308,0.015-0.616-0.016-0.914-0.091h-54.4c-15.13-0.044-27.384-12.299-27.429-27.429v-9.143
				c-0.015-5.043-4.1-9.128-9.143-9.143h-7.863l-7.131,8.411c-1.005,1.158-2.106,2.228-3.291,3.2v52.389
				c0,5.049-4.093,9.143-9.143,9.143c-5.049,0-9.143-4.093-9.143-9.143v-45.714h-18.286v18.286c0,5.049-4.093,9.143-9.143,9.143
				c-5.049,0-9.143-4.093-9.143-9.143v-18.286H136.96c-8.932-0.014-17.662,2.662-25.051,7.68
				c-7.41,4.925-13.124,12.012-16.366,20.297L54.857,248.503v105.6c-0.018,4.321,0.35,8.635,1.097,12.891
				c3.21,17.805,12.521,33.936,26.331,45.623l69.12,60.709C179.79,498.271,216.292,512.02,254.08,512h3.84
				c37.788,0.02,74.29-13.729,102.674-38.674l69.12-60.709c13.768-11.646,23.073-27.704,26.331-45.44
				c0.74-4.319,1.107-8.693,1.097-13.074V173.714h-0.091C456.96,173.714,456.869,173.623,456.777,173.623z M256,301.714
				c11.936-0.57,23.548,3.988,31.909,12.526c1.53,1.891,2.245,4.312,1.988,6.73c-0.257,2.418-1.466,4.635-3.359,6.161
				c-1.629,1.318-3.665,2.029-5.76,2.011c-2.748,0.042-5.356-1.211-7.04-3.383c-4.926-4.176-11.298-6.246-17.737-5.76
				c-6.44-0.486-12.812,1.584-17.737,5.76c-1.506,1.894-3.708,3.105-6.113,3.362c-2.406,0.258-4.814-0.459-6.687-1.991
				c-3.9-3.202-4.51-8.94-1.371-12.891C232.429,305.666,244.057,301.102,256,301.714z M291.987,347.419
				c2.425-0.155,4.81,0.672,6.618,2.295c1.82,1.599,2.93,3.857,3.084,6.275c0.154,2.418-0.659,4.798-2.261,6.616
				c-5.825,6.935-14.122,11.329-23.131,12.251c-3.836-0.145-7.615-0.981-11.154-2.469l-1.371-0.549
				c-3.647-1.235-7.55-1.518-11.337-0.823c-1.616,0.342-3.205,0.801-4.754,1.371c-3.818,1.516-7.871,2.351-11.977,2.469
				c-9.01-0.923-17.306-5.317-23.131-12.251c-3.327-3.788-2.956-9.555,0.829-12.885c3.785-3.33,9.552-2.965,12.886,0.816
				c2.454,2.92,5.739,5.025,9.417,6.034c2.135-0.221,4.229-0.744,6.217-1.554c2.367-0.809,4.779-1.481,7.223-2.011
				c6.912-1.293,14.043-0.725,20.663,1.646l1.646,0.549c1.532,0.713,3.168,1.176,4.846,1.371c3.672-1.024,6.953-3.126,9.417-6.034
				C287.302,348.698,289.562,347.574,291.987,347.419z M93.44,195.474c0.366-0.549,42.241-51.383,112.274-11.429
				c2.842,1.633,4.596,4.658,4.603,7.936c0.006,3.278-1.736,6.31-4.571,7.954c-2.835,1.644-6.333,1.651-9.174,0.018
				c-56.503-32.366-87.589,5.303-88.869,6.857c-1.724,2.184-4.349,3.463-7.131,3.474c-2.067,0.017-4.074-0.695-5.669-2.011
				c-1.923-1.481-3.164-3.679-3.44-6.09S91.901,197.351,93.44,195.474z M157.44,301.44c-1.761,0.187-3.532,0.279-5.303,0.274
				c-18.734,0.081-36.989-5.918-52.023-17.097c-5.31-4.389-8.475-10.851-8.686-17.737c0-21.029,20.663-46.537,65.92-52.663
				c45.897-6.309,68.48,35.749,69.394,37.577c0.367,0.629,0.644,1.306,0.823,2.011c2.506,9.124,0.613,18.895-5.12,26.423
				c-4.799,6.332-12.176,10.188-20.114,10.514c-8.028-0.397-16.023,1.272-23.223,4.846
				C172.296,298.824,164.956,300.806,157.44,301.44z M256,475.429c-35.931,0-73.143,0-73.143-32
				c0-28.16,32.091-50.286,73.143-50.286c41.051,0,73.143,22.126,73.143,50.286C329.143,475.429,291.931,475.429,256,475.429z
				 M384,306.834v31.451c0,5.049-4.093,9.143-9.143,9.143c-5.049,0-9.143-4.093-9.143-9.143v-27.703
				c-1.517,0.182-3.044,0.274-4.571,0.274c-4.606,0.01-9.201-0.449-13.714-1.371V320c0,5.049-4.093,9.143-9.143,9.143
				c-5.049,0-9.143-4.093-9.143-9.143v-17.097c-6.848-3.664-13.029-8.454-18.286-14.171v3.84c0,5.049-4.093,9.143-9.143,9.143
				s-9.143-4.093-9.143-9.143v-54.857c0.047-0.525,0.139-1.045,0.274-1.554c2.998-33.972,30.508-60.577,64.561-62.437
				c34.053-1.861,64.298,21.589,70.979,55.032C435.067,262.198,416.154,295.468,384,306.834z"/>
		</g>
	</g>
</g>
<g>
</g>
<g>
</g>
<g>
</g>
<g>
</g>
<g>
</g>
<g>
</g>
<g>
</g>
<g>
</g>
<g>
</g>
<g>
</g>
<g>
</g>
<g>
</g>
<g>
</g>
<g>
</g>
<g>
</g>
</svg>
